HIERARCHY
ROOT hip
{
	OFFSET 0.000000 0.000000 0.000000 
	CHANNELS 6 Xposition Yposition Zposition Xrotation Zrotation Yrotation
	JOINT abdomen
	{
		OFFSET 0.000000 3.402643 0.000000 
		CHANNELS 3 Xrotation Zrotation Yrotation
		JOINT chest
		{
			OFFSET 0.000000 8.438565 -0.680529 
			CHANNELS 3 Xrotation Zrotation Yrotation
			JOINT neck
			{
				OFFSET 0.000000 10.207942 -0.272212 
				CHANNELS 3 Xrotation Zrotation Yrotation
				JOINT head
				{
					OFFSET 0.000000 3.130431 0.000000 
					CHANNELS 3 Xrotation Zrotation Yrotation
					End Site
					{
						OFFSET 0.000000 3.130435 0.000000 
					}
				}
			}
			JOINT lCollar
			{
				OFFSET 3.470700 6.669187 -0.816635 
				CHANNELS 3 Yrotation Zrotation Xrotation
				JOINT lShldr
				{
					OFFSET 3.198488 0.000000 0.000000 
					CHANNELS 3 Zrotation Yrotation Xrotation
					JOINT lForeArm
					{
						OFFSET 10.139888 0.000000 0.000000 
						CHANNELS 3 Yrotation Zrotation Xrotation
						JOINT lHand
						{
							OFFSET 8.370511 0.000000 0.000000 
							CHANNELS 3 Zrotation Yrotation Xrotation
							End Site
							{
								OFFSET 4.083176 0.000000 0.000000 
							}
						}
					}
				}
			}
			JOINT rCollar
			{
				OFFSET -3.470700 6.669187 -0.816635 
				CHANNELS 3 Yrotation Zrotation Xrotation
				JOINT rShldr
				{
					OFFSET -3.198488 0.000000 0.000000 
					CHANNELS 3 Zrotation Yrotation Xrotation
					JOINT rForeArm
					{
						OFFSET -10.139888 0.000000 0.000000 
						CHANNELS 3 Yrotation Zrotation Xrotation
						JOINT rHand
						{
							OFFSET -8.370511 0.000000 0.000000 
							CHANNELS 3 Zrotation Yrotation Xrotation
							End Site
							{
								OFFSET -4.083176 0.000000 0.000000 
							}
						}
					}
				}
			}
		}
	}
	JOINT lThigh
	{
		OFFSET 5.308129 -1.633274 1.361059 
		CHANNELS 3 Xrotation Zrotation Yrotation
		JOINT lShin
		{
			OFFSET -2.041588 -20.007561 0.000000 
			CHANNELS 3 Xrotation Zrotation Yrotation
			JOINT lFoot
			{
				OFFSET 0.000000 -19.190928 -1.224953 
				CHANNELS 3 Xrotation Yrotation Zrotation
				End Site
				{
					OFFSET 0.000000 -2.449906 4.627600 
				}
			}
		}
	}
	JOINT rThigh
	{
		OFFSET -5.308129 -1.633274 1.361059 
		CHANNELS 3 Xrotation Zrotation Yrotation
		JOINT rShin
		{
			OFFSET 2.041588 -20.007561 0.000000 
			CHANNELS 3 Xrotation Zrotation Yrotation
			JOINT rFoot
			{
				OFFSET 0.000000 -19.190928 -1.224953 
				CHANNELS 3 Xrotation Yrotation Zrotation
				End Site
				{
					OFFSET 0.000000 -2.449906 4.627600 
				}
			}
		}
	}
}
MOTION
Frames: 18
Frame Time: 0.016667
0.917083 44.437374 -2.029863 5.120690 -7.382850 -5.992570 -30.984600 3.453480 2.016300 10.516700 -0.759672 1.530970 24.608419 -4.310868 -5.500660 15.763500 4.709180 -1.088410 2.000000 -2.000000 0.000000 -72.177498 -5.764070 -141.268997 100.499001 -0.188158 0.153837 0.116196 -0.133569 166.720993 -2.000000 2.000000 0.000000 55.930199 38.394600 -137.806000 -111.094002 0.169158 0.108689 -0.075071 0.078773 -166.326004 4.614461 4.473546 -39.225143 -0.724777 4.362704 -0.176868 -22.004629 47.660782 16.896463 -1.497650 7.362910 25.479214 2.703324 -2.844949 -0.186528 -8.780180 -19.217791 -3.124373 
0.899634 44.430172 -2.006598 4.924520 -7.453170 -5.611970 -30.885500 3.391740 2.013500 10.653500 -0.711890 1.520760 25.021360 -4.053169 -5.703852 15.942900 4.858660 -1.188300 2.000000 -2.000000 0.000000 -72.373199 -6.467450 -141.404007 100.390999 -0.188428 0.153887 0.115923 -0.133387 166.837997 -2.000000 2.000000 0.000000 54.593201 36.885399 -134.757996 -112.031998 0.167226 0.107926 -0.075300 0.079178 -166.492004 4.626068 4.531643 -38.847771 -0.610039 4.350453 -0.176389 -20.165539 47.529449 15.384010 -1.221277 7.385344 25.305298 2.680635 -2.812634 -0.186810 -9.031013 -19.293606 -3.259455 
0.883807 44.420399 -1.984714 4.698010 -7.455620 -5.241030 -30.836000 3.376070 2.025320 10.712400 -0.548445 1.520940 25.642075 -3.702830 -5.936069 16.182400 5.063950 -1.298300 2.000000 -2.000000 0.000000 -72.607697 -6.946080 -141.462006 100.419998 -0.188355 0.153873 0.115469 -0.133083 167.033005 -2.000000 2.000000 0.000000 53.324402 35.278801 -131.660995 -111.944000 0.167407 0.107999 -0.076048 0.080482 -167.029007 4.654646 4.517105 -38.387447 -0.530841 4.331316 -0.166251 -18.367510 47.226551 13.897705 -1.002821 7.437815 25.115444 2.858033 -2.912766 -0.185020 -9.294991 -19.411167 -3.301474 
0.870050 44.409863 -1.961145 4.471400 -7.448220 -4.926650 -30.807501 3.405310 2.020590 10.742000 -0.336795 1.523110 25.780262 -3.254412 -5.981404 16.158400 5.312800 -1.384440 2.000000 -2.000000 0.000000 -72.832497 -7.239160 -141.520004 100.585999 -0.187937 0.153796 0.115174 -0.132884 167.160004 -2.000000 2.000000 0.000000 52.778999 33.243500 -129.091003 -110.126999 0.171163 0.109443 -0.086324 0.081356 -167.389999 4.762498 4.502835 -38.078518 -0.468131 4.338582 -0.156211 -17.573490 46.877644 13.156809 -0.787720 7.419991 24.853685 2.955204 -2.926836 -0.193700 -9.492275 -19.423271 -3.379570 
0.859708 44.398796 -1.939330 4.245360 -7.499130 -4.754640 -30.758600 3.455570 2.071490 10.810500 -0.221368 1.551690 26.147619 -3.031782 -6.022022 16.289600 5.472210 -1.414780 2.000000 -2.000000 0.000000 -72.969398 -7.473640 -141.578003 100.792000 -0.187422 0.153699 0.115038 -0.132792 167.218994 -2.000000 2.000000 0.000000 52.166801 32.068100 -126.685997 -107.822998 0.175992 0.111103 -0.087660 0.083585 -168.317993 4.950526 4.535852 -37.937141 -0.416446 4.343629 -0.166336 -17.764305 46.578953 13.258728 -0.579804 7.479098 24.564436 3.086463 -2.974712 -0.202540 -9.625771 -19.237226 -3.376093 
0.855624 44.387867 -1.924692 4.078380 -7.549420 -4.736410 -30.667101 3.436460 2.210230 10.995900 -0.356309 1.622510 26.427538 -3.026662 -6.193895 16.408400 5.517210 -1.500600 2.000000 -2.000000 0.000000 -72.862099 -7.717870 -141.626007 101.015999 -0.186858 0.153590 0.115106 -0.132838 167.190002 -2.000000 2.000000 0.000000 51.918800 31.421600 -125.291000 -104.580002 0.182890 0.113107 -0.076255 0.080837 -167.175995 5.122798 4.542318 -37.874790 -0.316506 4.361989 -0.147328 -17.979874 46.459507 13.365224 -0.552307 7.700534 24.372969 3.572238 -3.213614 -0.218966 -9.766036 -19.061405 -3.209605 
0.854729 44.378471 -1.918558 3.950860 -7.609040 -4.850690 -30.626400 3.444500 2.285620 11.093500 -0.443106 1.665650 26.795950 -3.414467 -6.385171 16.621700 5.407350 -1.552120 2.000000 -2.000000 0.000000 -72.647400 -7.718020 -141.703995 101.269997 -0.186221 0.153464 0.115310 -0.132976 167.102005 -2.000000 2.000000 0.000000 51.985901 31.294001 -124.753998 -100.712997 0.191249 0.114982 -0.072279 0.073600 -164.225998 5.280859 4.581460 -37.691956 -0.282738 4.364260 -0.146971 -17.505762 46.543114 13.025303 -0.416140 7.671835 24.284809 3.478906 -3.098845 -0.228559 -9.749526 -18.805153 -3.252249 
0.853453 44.372173 -1.917895 3.823040 -7.639410 -5.128790 -30.644899 3.501990 2.384690 11.083700 -0.443093 1.714560 27.160225 -3.727727 -6.457136 16.786400 5.317770 -1.556730 2.000000 -2.000000 0.000000 -72.393303 -7.532320 -141.626007 101.524002 -0.185585 0.153336 0.115491 -0.133098 167.024002 -2.000000 2.000000 0.000000 52.229900 31.342699 -124.676003 -96.719200 0.199995 0.116323 -0.069365 0.067658 -161.863007 5.519127 4.534408 -37.459621 -0.249642 4.464026 -0.149283 -17.208601 46.727890 12.790677 -0.314322 7.637579 24.209938 3.445616 -3.018541 -0.227643 -9.645050 -18.484648 -3.225946 
0.858364 44.368702 -1.920929 3.743710 -7.581630 -5.534520 -30.638901 3.486490 2.617840 11.122400 -0.655082 1.827590 27.602585 -3.581525 -6.447690 16.945299 5.399800 -1.531530 2.000000 -2.000000 0.000000 -71.933899 -7.414640 -141.363007 101.758003 -0.184998 0.153215 0.115628 -0.133190 166.964996 -2.000000 2.000000 0.000000 52.985001 31.627600 -125.934998 -93.008202 0.208186 0.117019 -0.070479 0.070005 -162.791000 5.748710 4.439538 -37.468601 -0.263083 4.453495 -0.148795 -18.275089 46.884727 13.670455 -0.368797 7.659396 24.164608 3.690669 -3.138786 -0.236195 -9.526048 -18.148230 -3.040669 
0.869461 44.362141 -1.926073 3.772500 -7.493680 -5.962330 -30.642500 3.467340 2.841500 11.190300 -0.867191 1.930130 28.196232 -3.352773 -6.442503 17.223600 5.545370 -1.489830 2.000000 -2.000000 0.000000 -71.484200 -7.345690 -141.042007 101.885002 -0.184680 0.153149 0.115787 -0.133296 166.897003 -2.000000 2.000000 0.000000 54.034599 32.138100 -127.775002 -89.775902 0.215384 0.136724 -0.073116 0.075199 -164.871002 5.905206 4.287967 -37.665909 -0.278772 4.462187 -0.159074 -20.035374 46.958473 15.082928 -0.429380 7.530755 24.160488 3.682431 -3.134008 -0.246446 -9.414720 -17.706264 -2.893051 
0.876637 44.358669 -1.934532 3.840760 -7.415140 -6.415270 -30.695299 3.667000 2.854440 11.103000 -0.577980 1.971230 28.474491 -3.469291 -6.377628 17.371500 5.570230 -1.439650 2.000000 -2.000000 0.000000 -71.513000 -7.022950 -140.789001 101.944000 -0.184534 0.153118 0.115673 -0.133220 166.945999 -2.000000 2.000000 0.000000 55.027302 32.913300 -130.264008 -87.617699 0.220532 0.136607 -0.074683 0.078081 -166.042999 5.943149 4.229485 -37.583828 -0.350640 4.398454 -0.157521 -21.059168 46.975754 15.948646 -0.493361 7.390261 24.213129 3.505823 -3.038640 -0.227103 -9.213936 -17.416662 -2.857016 
0.881947 44.363049 -1.949642 3.938540 -7.336340 -6.871760 -30.710600 3.633650 2.985590 11.141700 -0.789996 2.035280 28.582634 -3.423841 -6.287169 17.381500 5.579480 -1.377860 2.000000 -2.000000 0.000000 -71.112297 -6.758970 -140.623001 102.051003 -0.184265 0.153061 0.115673 -0.133220 166.945999 -2.000000 2.000000 0.000000 56.606800 33.923599 -133.078995 -85.996597 0.224394 0.136391 -0.071780 0.072626 -163.835999 5.914009 4.086049 -37.378662 -0.282103 4.471920 -0.149229 -21.379351 47.079472 16.211248 -0.716214 7.428638 24.376831 3.745083 -3.194778 -0.226890 -9.127972 -17.178698 -2.629871 
0.889006 44.370499 -1.963763 4.105030 -7.237440 -7.276640 -30.767000 3.646430 3.075760 11.102300 -0.895869 2.072990 28.679401 -3.560344 -6.241081 17.429800 5.549750 -1.331050 2.000000 -2.000000 0.000000 -70.916801 -6.485340 -140.516006 102.001999 -0.184387 0.153087 0.115559 -0.133144 166.994003 -2.000000 2.000000 0.000000 58.225601 34.953899 -136.001007 -84.981003 0.226810 0.136200 -0.068022 0.064694 -160.701004 5.826683 4.040783 -37.378147 -0.360162 4.378254 -0.147325 -21.927366 47.217979 16.751984 -0.846581 7.258485 24.634680 3.482992 -3.064174 -0.218083 -8.906248 -17.091269 -2.615063 
0.892866 44.378471 -1.969144 4.291410 -7.167560 -7.578130 -30.826200 3.677200 3.076980 11.073100 -0.886160 2.081600 28.810930 -4.193942 -6.336957 17.550699 5.280710 -1.314120 2.000000 -2.000000 0.000000 -70.906998 -6.270550 -140.546005 101.806999 -0.184876 0.153190 0.115242 -0.132930 167.130997 -2.000000 2.000000 0.000000 59.863899 35.916199 -139.001999 -85.117699 0.226485 0.136228 -0.065831 0.059475 -158.679993 5.728369 3.980694 -37.535767 -0.395720 4.365427 -0.147321 -22.643276 47.396015 17.379822 -1.053818 7.237010 24.838251 3.461175 -3.103433 -0.218936 -8.742792 -17.071634 -2.537743 
0.894518 44.388767 -1.971548 4.517300 -7.116720 -7.709750 -30.924900 3.673200 3.041030 10.985100 -0.905192 2.056910 29.074827 -4.624633 -6.486609 17.752899 5.123920 -1.342840 2.000000 -2.000000 0.000000 -70.916901 -5.958260 -140.664001 101.669998 -0.185218 0.153261 0.114835 -0.132654 167.307007 -2.000000 2.000000 0.000000 61.628399 36.527302 -142.028000 -86.514198 0.223162 0.136472 -0.065650 0.059017 -158.503998 5.574968 3.950691 -37.737694 -0.452497 4.369524 -0.167132 -23.073681 47.597454 17.810444 -1.170945 7.115479 25.021788 3.125812 -2.962389 -0.211710 -8.535939 -17.184473 -2.579765 
0.894199 44.401627 -1.971661 4.772960 -7.094710 -7.671230 -31.042999 3.626530 2.973700 10.857900 -0.991486 2.024890 29.167053 -4.656027 -6.464746 17.812401 5.150970 -1.330660 2.000000 -2.000000 0.000000 -70.965897 -5.587550 -140.869003 101.630997 -0.185316 0.153281 0.114676 -0.132546 167.375000 -2.000000 2.000000 0.000000 63.479599 36.806198 -144.873001 -88.848198 0.217597 0.136697 -0.065994 0.059881 -158.835999 5.317806 3.966352 -38.047821 -0.465996 4.358447 -0.156814 -23.203341 47.833782 17.979248 -1.344811 7.097124 25.181175 2.933933 -2.934353 -0.194115 -8.406281 -17.426882 -2.585642 
0.888220 44.411907 -1.966055 4.980030 -7.131460 -7.475310 -31.115601 3.588500 2.790940 10.779800 -0.981630 1.936690 28.751623 -4.875669 -6.349535 17.604099 5.051470 -1.296080 2.000000 -2.000000 0.000000 -71.171600 -5.236710 -141.261002 101.543999 -0.185536 0.153326 0.114789 -0.132623 167.326004 -2.000000 2.000000 0.000000 65.124397 37.015598 -147.089005 -91.953598 0.210521 0.117120 -0.066930 0.062157 -159.714996 5.095692 4.074632 -38.392807 -0.492413 4.345753 -0.156747 -23.369099 47.905941 18.114210 -1.401817 7.058848 25.288612 2.604097 -2.816954 -0.178013 -8.340844 -17.687912 -2.679469 
0.876048 44.421299 -1.956731 5.099000 -7.207990 -7.136650 -31.026699 3.593230 2.445100 10.975800 -0.722207 1.762520 28.430168 -5.209752 -6.254126 17.493200 4.921030 -1.249390 2.000000 -2.000000 0.000000 -71.582603 -5.110890 -141.865005 101.358002 -0.186001 0.153420 0.114744 -0.132592 167.345993 -2.000000 2.000000 0.000000 66.103302 37.320599 -148.182999 -95.332497 0.203051 0.116645 -0.067218 0.062837 -159.977997 4.936872 4.219086 -38.688492 -0.540103 4.340025 -0.166486 -23.552860 47.756210 18.218412 -1.444709 7.205831 25.385117 2.600475 -2.872657 -0.168726 -8.455571 -18.123478 -2.753799 
